PathFileType	4	(X/Y/Z)	/Users/itak/Documents/Research/Walk-IL/dataset/trc/00351_00011.trc
DataRate	CameraRate	NumFrames	NumMarkers	Units	OrigDataRate	OrigDataStartFrame	OrigNumFrames
100.000000	100.000000	4	53	mm	100.000000	563	751
Frame#	Time	RPSI			LPSI			L3			STRN			T10			C7			CLAV			RBAK			LBAK			LSHO			LUPA			LAEL			LAOL			LWTS			LWPS			LFRA			LIFD			LHPS			LHTS			RSHO			RUPA			RAEL			RAOL			RWTS			RWPS			RFRA			RIFD			RHTS			RHPS			RBHD			LFHD			RFHD			LBHD			LHIP			RHIP			RASI			LASI			LKNE			LTHI			LANK			LTIP			LTOE			LMT1			LMT5			LHEE			RKNE			RTHI			RANK			RTIP			RTOE			RMT1			RMT5			RHEE			
		X1	Y1	Z1	X2	Y2	Z2	X3	Y3	Z3	X4	Y4	Z4	X5	Y5	Z5	X6	Y6	Z6	X7	Y7	Z7	X8	Y8	Z8	X9	Y9	Z9	X10	Y10	Z10	X11	Y11	Z11	X12	Y12	Z12	X13	Y13	Z13	X14	Y14	Z14	X15	Y15	Z15	X16	Y16	Z16	X17	Y17	Z17	X18	Y18	Z18	X19	Y19	Z19	X20	Y20	Z20	X21	Y21	Z21	X22	Y22	Z22	X23	Y23	Z23	X24	Y24	Z24	X25	Y25	Z25	X26	Y26	Z26	X27	Y27	Z27	X28	Y28	Z28	X29	Y29	Z29	X30	Y30	Z30	X31	Y31	Z31	X32	Y32	Z32	X33	Y33	Z33	X34	Y34	Z34	X35	Y35	Z35	X36	Y36	Z36	X37	Y37	Z37	X38	Y38	Z38	X39	Y39	Z39	X40	Y40	Z40	X41	Y41	Z41	X42	Y42	Z42	X43	Y43	Z43	X44	Y44	Z44	X45	Y45	Z45	X46	Y46	Z46	X47	Y47	Z47	X48	Y48	Z48	X49	Y49	Z49	X50	Y50	Z50	X51	Y51	Z51	X52	Y52	Z52	X53	Y53	Z53	

564	5.63	621.06298828125	962.7347412109375	609.7301635742188	684.4031372070312	966.8023071289062	723.7964477539062	655.5816650390625	1032.05908203125	659.4593505859375	452.1172485351562	1210.8837890625	776.470947265625	661.3041381835938	1150.738403320312	659.7455444335938	626.6067504882812	1397.346313476562	698.978515625	488.8397521972656	1337.539672851562	762.2930297851562	642.6935424804688	1260.661743164062	610.221923828125	683.7681274414062	1360.448364257812	781.2329711914062	635.1314697265625	1372.313232421875	871.6923217773438	687.3455200195312	1251.53125	913.8338012695312	697.2402954101562	1048.798828125	917.5262451171875	709.823974609375	1039.985229492188	834.189208984375	625.9880981445312	793.4367065429688	928.1380615234375	692.7343139648438	790.5526123046875	946.78125	702.1572265625	944.2814331054688	926.2568359375	641.6572265625	635.6322021484375	903.039794921875	701.7630615234375	721.2775268554688	931.5772705078125	637.3973388671875	713.3649291992188	937.21044921875	505.6621398925781	1387.202758789062	578.068359375	484.9267272949219	1324.348510742188	514.0265502929688	434.377685546875	1059.295776367188	485.8832702636719	512.7692260742188	1041.172729492188	533.9479370117188	311.4466552734375	895.3706665039062	632.0695190429688	296.2969665527344	861.98974609375	564.2028198242188	393.7240905761719	1001.993347167969	501.58056640625	242.7487182617188	744.8496704101562	682.2733154296875	246.7352600097656	816.6549682617188	662.4270629882812	257.71044921875	792.9808349609375	597.8704223632812	524.588134765625	1605.732543945312	657.127685546875	406.0090942382812	1583.994262695312	826.8939819335938	379.6784362792969	1583.853637695312	728.4834594726562	586.4141235351562	1607.260131835938	787.6515502929688	655.6871337890625	921.40185546875	857.2208862304688	498.9783935546875	904.1072998046875	555.9846801757812	425.3390197753906	937.8259887695312	639.7702026367188	520.6904296875	947.7982788085938	859.2614135742188	482.0138854980469	505.8936157226562	980.7633666992188	525.119384765625	629.3663940429688	961.6447143554688	674.384765625	113.3184814453125	903.3262939453125	580.7625122070312	302.080810546875	957.69384765625	489.1362609863281	49.56659698486328	987.183349609375	512.9932250976562	51.91807556152344	909.7147216796875	593.7180786132812	71.83853912353516	989.9931640625	656.7373046875	113.2739639282227	829.4559326171875	476.4015197753906	442.7354431152344	665.1506958007812	435.8641967773438	697.149169921875	616.1419067382812	573.6378173828125	48.16045761108398	707.2034912109375	485.183349609375	325.7008666992188	701.9278564453125	437.1288757324219	42.20916366577148	852.9761352539062	506.5072021484375	33.71684646606445	858.6010131835938	476.951416015625	37.51063537597656	744.3035278320312	639.9068603515625	46.25957489013672	722.0509033203125	
565	5.64	618.716064453125	963.0230102539062	614.8787231445312	680.0537719726562	967.1023559570312	729.9156494140625	652.5927124023438	1032.280883789062	664.6561279296875	446.9203491210938	1210.79931640625	778.9668579101562	657.9669799804688	1150.96923828125	664.7196044921875	622.1087036132812	1397.463623046875	703.6727905273438	483.7425537109375	1337.513305664062	765.3814086914062	639.371337890625	1260.864379882812	615.2122192382812	678.2461547851562	1360.582275390625	786.6206665039062	628.6356201171875	1372.381713867188	876.5318603515625	681.1336669921875	1251.714599609375	918.80712890625	692.0656127929688	1048.98681640625	921.79345703125	705.10546875	1040.589721679688	838.4696044921875	622.1098022460938	793.1738891601562	930.711181640625	688.6626586914062	790.6022338867188	950.1398315429688	697.4995727539062	944.481201171875	930.1974487304688	639.127685546875	635.2161865234375	904.6630249023438	698.3359375	721.4443359375	934.7766723632812	633.9227905273438	712.9667358398438	939.421630859375	502.6281127929688	1387.288330078125	581.3485717773438	482.542724609375	1324.421630859375	517.0669555664062	430.9870910644531	1059.533203125	488.69287109375	509.1972961425781	1041.083129882812	536.8796997070312	306.9752502441406	896.80126953125	635.3389282226562	291.6204223632812	863.3324584960938	567.5657958984375	390.010009765625	1002.484741210938	504.482177734375	237.2123107910156	746.96875	685.9929809570312	241.6358337402344	818.678466796875	665.85205078125	252.5597839355469	794.714599609375	601.43017578125	520.7918090820312	1605.765258789062	660.7117309570312	400.6759338378906	1584.41357421875	829.4629516601562	375.180419921875	1584.312133789062	730.875	581.4442749023438	1607.105346679688	791.763916015625	648.4551391601562	921.4085083007812	863.0430297851562	497.7038879394531	904.21337890625	558.8839111328125	422.3210754394531	937.8716430664062	641.1784057617188	513.9447631835938	947.9854736328125	862.4107666015625	473.7364807128906	505.8030700683594	982.9856567382812	517.2227783203125	629.4273681640625	964.8308715820312	653.1453247070312	104.6851043701172	921.1549072265625	566.0266723632812	298.5700988769531	967.6969604492188	463.6748046875	51.12474822998047	1002.650512695312	489.408447265625	49.98346710205078	925.7454833984375	569.0236206054688	69.37653350830078	1007.204650878906	637.15869140625	102.9161224365234	847.0689697265625	474.6958618164062	442.7175598144531	666.2079467773438	434.2344970703125	697.0662231445312	617.677001953125	573.634033203125	48.1701774597168	707.2235717773438	483.8567199707031	325.5040283203125	702.7160034179688	437.0672302246094	42.17030715942383	852.9375	506.3488159179688	33.86200714111328	858.6246337890625	476.9645385742188	37.45497512817383	744.2162475585938	640.0150146484375	46.42927932739258	722.030517578125	
566	5.65	616.3026123046875	963.2227783203125	619.9885864257812	675.5938110351562	967.3467407226562	735.9884643554688	649.4876098632812	1032.406616210938	669.8892822265625	441.66552734375	1210.643432617188	781.4006958007812	654.5914916992188	1151.095947265625	669.724609375	617.5790405273438	1397.481323242188	708.377685546875	478.6096801757812	1337.413330078125	768.4229125976562	636.0426635742188	1260.977294921875	620.2073974609375	672.6557006835938	1360.622680664062	792.0393676757812	622.0330200195312	1372.386352539062	881.3530883789062	674.8209838867188	1251.877563476562	923.8362426757812	686.7591552734375	1049.163452148438	926.2819213867188	700.4488525390625	1041.177368164062	842.9853515625	618.0272827148438	792.97998046875	933.5313110351562	684.3657836914062	790.6571044921875	953.79296875	692.672119140625	944.6648559570312	934.4197998046875	636.2037353515625	634.7891845703125	906.7005615234375	694.6160278320312	721.589111328125	938.3485107421875	630.1937866210938	712.6806640625	942.011962890625	499.6208190917969	1387.278198242188	584.6249389648438	480.2090148925781	1324.410888671875	520.1055908203125	427.6607360839844	1059.690673828125	491.5007019042969	505.7542419433594	1040.953369140625	539.749755859375	302.7380676269531	897.9093017578125	638.4917602539062	287.1385498046875	864.4625244140625	570.7996215820312	386.4089660644531	1002.866455078125	507.3764038085938	232.0871276855469	748.6408081054688	689.4407958984375	236.8704376220703	820.2801513671875	669.1299438476562	247.6715240478516	796.1510620117188	604.7806396484375	516.9622802734375	1605.7158203125	664.292236328125	395.2908935546875	1584.7373046875	831.9891967773438	370.6799926757812	1584.657836914062	733.2532958984375	576.4490966796875	1606.881713867188	795.8861083984375	641.1730346679688	921.3123168945312	868.8244018554688	496.3645935058594	904.2588500976562	561.8287963867188	419.3892211914062	937.8429565429688	642.6278686523438	507.1578063964844	948.0142211914062	865.524658203125	465.9567260742188	505.304443359375	985.0180053710938	509.74462890625	629.1563720703125	967.7753295898438	631.1043701171875	96.46864318847656	938.5074462890625	551.1131591796875	295.0759887695312	977.3744506835938	437.6942443847656	52.97916412353516	1016.526794433594	465.3540954589844	48.61100387573242	940.4215087890625	543.59765625	67.1170654296875	1023.286926269531	616.8793334960938	93.12001037597656	864.2708129882812	472.8241271972656	442.6641540527344	667.3777465820312	432.468994140625	696.9500732421875	619.2685546875	573.62353515625	48.18856048583984	707.24755859375	482.3986206054688	325.2378540039062	703.5853881835938	436.9976196289062	42.11466979980469	852.9033813476562	506.2147521972656	34.0081787109375	858.61865234375	476.982177734375	37.39645767211914	744.1314086914062	640.1001586914062	46.61414337158203	722.0153198242188	
567	5.66	613.7957153320312	963.3302001953125	625.05126953125	671.0067138671875	967.5230712890625	742.014892578125	646.2513427734375	1032.437866210938	675.1580810546875	436.3566284179688	1210.41943359375	783.7835083007812	651.146484375	1151.12109375	674.7734375	613.0247802734375	1397.399169921875	713.095458984375	473.4378662109375	1337.236206054688	771.4151611328125	632.7094116210938	1260.990234375	625.1802368164062	667.0060424804688	1360.5712890625	797.4828491210938	615.3272705078125	1372.3232421875	886.1490478515625	668.3823852539062	1252.013793945312	928.9366455078125	681.314208984375	1049.320434570312	930.99755859375	695.8378295898438	1041.738647460938	847.7462768554688	613.7537231445312	792.8276977539062	936.6184692382812	679.8580322265625	790.7080078125	957.7294311523438	687.6690673828125	944.8285522460938	938.9204711914062	632.9058227539062	634.4114990234375	909.235595703125	690.6185302734375	721.7138671875	942.27392578125	626.2212524414062	712.5042724609375	944.9945068359375	496.64599609375	1387.170532226562	587.9004516601562	477.9286499023438	1324.317260742188	523.1444702148438	424.4071350097656	1059.76513671875	494.3094787597656	502.441650390625	1040.78076171875	542.5755004882812	298.7261047363281	898.7066650390625	641.530517578125	282.8548278808594	865.37646484375	573.9024047851562	382.9261474609375	1003.134460449219	510.2583618164062	227.3529052734375	749.8655395507812	692.625244140625	232.4383392333984	821.4592895507812	672.2697143554688	243.0413818359375	797.2864990234375	607.9241943359375	513.0918579101562	1605.586303710938	667.87890625	389.8580627441406	1584.953979492188	834.4807739257812	366.1752319335938	1584.88623046875	735.6178588867188	571.4232788085938	1606.593505859375	800.0245971679688	633.9028930664062	921.130615234375	874.53271484375	494.9288330078125	904.2391357421875	564.8240356445312	416.5184936523438	937.7330932617188	644.1367797851562	500.3371887207031	947.87841796875	868.61181640625	458.6461791992188	504.406982421875	986.9271850585938	502.6948547363281	628.5529174804688	970.4963989257812	608.3314208984375	88.78269195556641	955.2877807617188	536.0404052734375	291.6609191894531	986.7046508789062	411.3155517578125	55.21995544433594	1028.791381835938	440.9418334960938	47.86138153076172	953.6869506835938	517.5186767578125	65.17435455322266	1038.193603515625	595.9979248046875	84.01862335205078	880.9346923828125	470.7935180664062	442.5648498535156	668.6357421875	430.5705261230469	696.802734375	620.9126586914062	573.6040649414062	48.21615982055664	707.2755737304688	480.8168640136719	324.9015197753906	704.5202026367188	436.9231872558594	42.04445648193359	852.8695068359375	506.1291809082031	34.13432693481445	858.572509765625	476.9988403320312	37.33535385131836	744.0508422851562	640.14501953125	46.80507659912109	722.009521484375	
